<?xml version="1.0" standalone="no"?>
<!DOCTYPE svg PUBLIC "-//W3C//DTD SVG 20010904//EN"
 "http://www.w3.org/TR/2001/REC-SVG-20010904/DTD/svg10.dtd">
<svg version="1.0" xmlns="http://www.w3.org/2000/svg"
 width="1104.000000pt" height="509.000000pt" viewBox="0 0 1104.000000 509.000000"
 preserveAspectRatio="xMidYMid meet">

<g transform="translate(0.000000,509.000000) scale(0.100000,-0.100000)"
fill="#000000" stroke="none">
<path d="M1720 5065 c-225 -33 -476 -137 -643 -267 -67 -52 -205 -188 -259
-255 l-50 -63 20 -52 c11 -29 25 -66 32 -82 l11 -30 43 65 c188 278 479 469
814 536 121 24 344 21 472 -6 102 -21 217 -59 290 -96 42 -21 53 -22 170 -16
l125 6 -70 46 c-143 95 -306 162 -483 199 -127 27 -344 34 -472 15z"/>
<path d="M2511 4639 c-378 -74 -692 -429 -924 -1045 -93 -244 -180 -589 -213
-843 -14 -102 -14 -116 0 -129 19 -19 20 -16 36 83 44 273 199 666 355 901
172 258 351 409 565 475 104 33 264 33 366 1 126 -39 237 -131 295 -244 59
-116 64 -298 11 -454 -35 -105 -217 -458 -388 -754 -324 -563 -420 -755 -509
-1025 -59 -178 -98 -347 -115 -505 -6 -58 -15 -124 -18 -148 -7 -40 -50 70
-696 1775 -379 1000 -692 1821 -696 1826 -3 4 -133 6 -287 5 l-282 -3 866
-2272 866 -2273 149 0 148 0 -5 23 c-11 54 -26 485 -21 612 31 688 158 1069
632 1900 191 335 385 696 451 840 50 109 105 272 129 386 23 105 26 366 5 449
-51 209 -196 359 -396 410 -83 21 -240 26 -324 9z"/>
<path d="M10100 3530 c0 -20 7 -20 355 -20 l355 0 0 -385 0 -385 -285 0 c-278
0 -285 0 -285 -20 0 -20 7 -20 285 -20 l285 0 0 -466 0 -466 -277 4 c-325 5
-357 12 -433 88 -25 25 -50 54 -56 65 -20 36 2 -88 24 -139 30 -67 106 -139
175 -165 55 -20 74 -21 427 -21 l370 0 0 975 0 975 -470 0 c-463 0 -470 0
-470 -20z"/>
<path d="M3652 2558 l3 -973 375 0 375 0 56 26 c100 47 165 129 188 237 17 82
13 90 -18 40 -32 -51 -70 -81 -133 -105 -36 -14 -92 -18 -330 -21 l-288 -4 0
466 0 466 285 0 c278 0 285 0 285 20 0 20 -7 20 -285 20 l-285 0 0 385 0 385
355 0 c309 0 355 2 355 15 0 13 -59 15 -470 15 l-470 0 2 -972z"/>
<path d="M4790 2555 l0 -975 535 0 c528 0 535 0 535 20 0 20 -7 20 -425 20
l-425 0 0 955 0 955 -110 0 -110 0 0 -975z"/>
<path d="M6030 2555 l0 -975 540 0 c533 0 540 0 540 20 0 20 -7 20 -425 20
l-425 0 0 955 0 955 -115 0 -115 0 0 -975z"/>
<path d="M7082 2848 c4 -664 5 -685 26 -761 35 -126 85 -211 182 -308 72 -73
100 -93 180 -132 125 -60 229 -82 365 -74 281 15 472 172 562 462 l28 90 3
703 c2 613 1 702 -12 702 -13 0 -15 -88 -19 -672 -4 -727 -4 -720 -61 -871
-87 -231 -275 -366 -511 -367 -275 0 -463 199 -504 535 -7 57 -11 327 -11 733
l0 642 -116 0 -115 0 3 -682z"/>
<path d="M8600 2555 l0 -976 113 3 112 3 3 533 2 532 39 0 39 0 352 -535 352
-535 140 0 c77 0 138 4 136 9 -1 4 -140 220 -308 479 l-305 471 -45 6 c-113
15 -229 53 -275 89 -18 14 -10 15 108 16 339 1 555 65 686 206 75 80 103 149
103 254 1 168 -89 286 -274 361 -130 54 -185 59 -600 59 l-378 0 0 -975z m792
917 c155 -62 247 -226 236 -419 -8 -136 -72 -240 -186 -301 -99 -53 -155 -63
-394 -69 l-218 -6 0 412 0 413 253 -4 c234 -3 256 -5 309 -26z"/>
<path d="M3286 3458 c-10 -29 -39 -98 -65 -153 l-46 -100 -6 -870 c-6 -939 -4
-901 -61 -1075 -131 -400 -484 -734 -875 -827 l-73 -17 0 -57 c0 -89 1 -89 73
-73 457 104 856 468 1006 919 68 206 65 148 68 1140 2 495 2 960 1 1033 l-3
133 -19 -53z"/>
<path d="M523 2115 c4 -737 2 -701 62 -895 103 -327 335 -612 640 -787 83 -47
223 -109 230 -101 3 3 -9 42 -26 87 -28 74 -35 84 -72 103 -143 72 -312 206
-407 325 -113 140 -171 246 -226 408 -58 173 -64 245 -64 741 l0 442 -66 173
c-36 96 -68 176 -71 179 -2 2 -2 -301 0 -675z"/>
<path d="M4200 795 l0 -255 25 0 25 0 0 255 0 255 -25 0 -25 0 0 -255z"/>
<path d="M4810 795 l0 -255 30 0 30 0 2 207 3 206 163 -206 c113 -143 169
-207 182 -207 19 0 20 9 20 255 l0 255 -25 0 -25 0 0 -201 c0 -166 -2 -200
-13 -190 -8 6 -81 96 -163 201 -129 165 -152 190 -176 190 l-28 0 0 -255z"/>
<path d="M5760 1025 c0 -25 1 -25 85 -25 l85 0 0 -230 0 -230 25 0 25 0 0 230
0 230 90 0 c89 0 90 0 90 25 l0 25 -200 0 -200 0 0 -25z"/>
<path d="M6680 795 l0 -255 25 0 25 0 0 255 0 255 -25 0 -25 0 0 -255z"/>
<path d="M7290 795 l0 -255 30 0 30 0 0 207 0 207 93 -137 94 -136 89 132 89
132 3 -202 2 -203 30 0 30 0 0 255 0 255 -29 0 c-25 0 -38 -14 -121 -140 l-93
-140 -94 140 c-85 128 -96 140 -123 140 l-30 0 0 -255z"/>
<path d="M8502 1008 c-97 -216 -205 -454 -209 -460 -2 -5 9 -8 24 -8 26 0 32
7 60 70 l31 70 140 0 139 0 31 -70 c27 -60 34 -70 56 -70 14 0 26 3 26 7 0 3
-50 118 -112 255 -107 236 -114 248 -140 248 -22 0 -30 -8 -46 -42z m106 -149
c29 -67 51 -123 49 -126 -3 -2 -54 -2 -115 -1 l-110 3 55 123 c31 67 59 122
62 122 3 0 30 -55 59 -121z"/>
<path d="M9210 1025 c0 -25 1 -25 85 -25 l85 0 0 -230 0 -230 25 0 25 0 0 230
0 230 90 0 c89 0 90 0 90 25 l0 25 -200 0 -200 0 0 -25z"/>
<path d="M10120 795 l0 -255 185 0 185 0 0 25 0 25 -155 0 -155 0 0 90 0 90
140 0 140 0 0 25 0 25 -140 0 -140 0 0 90 0 90 155 0 155 0 0 25 0 25 -185 0
-185 0 0 -255z"/>
</g>
</svg>
